# xmcd
#
# Track frame offsets:
#	150
#	13318
#	27083
#	39969
#	56845
#	75732
#	90543
#	103435
#	116110
#	134852
#	148440
#	160004
#	174437
#	185757
#	202007
#	213634
#	228468
#	243864
#	261772
#	273073
#	286762
#	299000
#	313236
#
# Disc length: 4376 seconds
#
# Revision: 1
# Processed by: cddbd v1.4PL0 Copyright (c) Steve Scherf et al.
# Submitted via: EasyCDDAExtractor 5.0.7
#
DISCID=69111617
DTITLE=Various Artist - Run Mountain
DYEAR=1963
DGENRE=Bluegrass
TTITLE0=J.E. Mainer's Mountaineers - Mississippi Sawyer
TTITLE1=J. E. Mainer's Mountaineers - Ramshackle Shack
TTITLE2=J. E. Mainer's Mountaineers - Run Mountain
TTITLE3=J. E. Mainer's Mountaineers - Short Life Of Trouble
TTITLE4=J. E. Mainer's Mountaineers - If I Lose Let Me Lose
TTITLE5=J. E. Mainer's Mountaineers - Greenback Dollar
TTITLE6=J. E. Mainer's Mountaineers - Seven And A Half
TTITLE7=J. E. Mainer's Mountaineers - Don't Go Out Little Darling
TTITLE8=J. E. Mainer's Mountaineers - Over In The Gloryland
TTITLE9=J. E. Mainer's Mountaineers - The Country Blues
TTITLE10=J. E. Mainer's Mountaineers - Hop Along Peter
TTITLE11=J. E. Mainer's Mountaineers - He's Comig To Us Dead
TTITLE12=J. E. Mainer's Mountaineers - Crying Holy
TTITLE13=J. E. Mainer's Mountaineers - Oh Those Tombs
TTITLE14=J. E. Mainer's Mountaineers - Rhythm Blues
TTITLE15=J. E. Mainer's Mountaineers - Two Little Rosebuds
TTITLE16=J. E. Mainer's Mountaineers - Sally Goodin'
TTITLE17=J. E. Mainer's Mountaineers - Maple On The Hill
TTITLE18=J. E. Mainer's Mountaineers - My Home's In Louisiana
TTITLE19=J. E. Mainer's Mountaineers - Wild Bill Jones
TTITLE20=J. E. Mainer's Mountaineers - Shake My Mother's Hand For Me
TTITLE21=J. E. Mainer's Mountaineers - I'm Just Here To Get My Baby Out Of Jai
TTITLE21=l
TTITLE22=J. E. Mainer's Mountaineers - Mama Don't Allow
EXTD=
EXTT0=
EXTT1=
EXTT2=
EXTT3=
EXTT4=
EXTT5=
EXTT6=
EXTT7=
EXTT8=
EXTT9=
EXTT10=
EXTT11=
EXTT12=
EXTT13=
EXTT14=
EXTT15=
EXTT16=
EXTT17=
EXTT18=
EXTT19=
EXTT20=
EXTT21=
EXTT22=
PLAYORDER=
